<?xml version="1.0"?><svg fill="#1A1A1A" xmlns="http://www.w3.org/2000/svg"  viewBox="0 0 128 128" width="64px" height="64px">    <path d="M 64 6.0507812 C 49.15 6.0507812 34.3 11.7 23 23 C 12 33.9 6 48.5 6 64 C 6 79.5 12 94.1 23 105 C 34.3 116.3 49.2 122 64 122 C 78.9 122 93.7 116.3 105 105 C 116 94 122 79.5 122 64 C 122 48.5 116 33.9 105 23 C 93.7 11.7 78.85 6.0507812 64 6.0507812 z M 64 12 C 77.3 12 90.600781 17.099219 100.80078 27.199219 C 110.60078 37.099219 116 50.1 116 64 C 116 77.9 110.60078 90.900781 100.80078 100.80078 C 80.500781 121.10078 47.500781 121.10078 27.300781 100.80078 C 17.400781 90.900781 12 77.9 12 64 C 12 50.1 17.399219 37.099219 27.199219 27.199219 C 37.399219 17.099219 50.7 12 64 12 z M 58.962891 46 C 58.200391 46 57.450391 46.300391 56.900391 46.900391 L 41.900391 61.900391 C 40.700391 63.100391 40.700391 64.999609 41.900391 66.099609 L 56.900391 81.099609 C 57.500391 81.699609 58.3 82 59 82 C 59.7 82 60.499609 81.699609 61.099609 81.099609 C 62.299609 79.899609 62.299609 78.000391 61.099609 76.900391 L 51.199219 67 L 82 67 C 83.7 67 85 65.7 85 64 C 85 62.3 83.7 61 82 61 L 51.199219 61 L 61.099609 51.099609 C 62.299609 49.899609 62.299609 48.000391 61.099609 46.900391 C 60.499609 46.300391 59.725391 46 58.962891 46 z"/></svg>